<?xml version="1.0" standalone="no"?>
<!DOCTYPE svg PUBLIC "-//W3C//DTD SVG 20010904//EN"
 "http://www.w3.org/TR/2001/REC-SVG-20010904/DTD/svg10.dtd">
<svg version="1.0" xmlns="http://www.w3.org/2000/svg"
 width="1532.000000pt" height="786.000000pt" viewBox="0 0 1532.000000 786.000000"
 preserveAspectRatio="xMidYMid meet">

<g transform="translate(0.000000,786.000000) scale(0.100000,-0.100000)"
fill="#333" stroke="none">
<path d="M3245 7778 c-82 -43 -223 -116 -313 -163 -90 -46 -168 -88 -175 -93
-7 -5 -147 -78 -312 -162 -165 -84 -305 -156 -311 -161 -6 -5 -140 -74 -298
-154 -278 -140 -440 -225 -515 -268 -72 -41 -805 -415 -1243 -634 l-77 -38 0
-2175 0 -2175 112 -56 c489 -245 1096 -555 1232 -629 33 -18 87 -47 120 -65
33 -18 242 -125 465 -238 223 -113 457 -232 520 -265 63 -32 223 -114 355
-181 220 -113 391 -201 552 -287 l62 -33 108 56 c59 30 131 68 158 83 28 15
261 134 519 264 259 130 475 241 480 245 6 5 67 38 136 74 69 35 177 91 240
124 63 34 288 148 500 256 480 243 601 306 620 322 8 7 112 62 230 123 118 60
262 135 320 165 l105 55 3 428 c1 236 0 435 -3 442 -3 9 -43 -7 -132 -54 -71
-37 -219 -113 -330 -170 -112 -57 -218 -114 -235 -127 -18 -13 -112 -63 -208
-112 -96 -48 -197 -100 -225 -115 -49 -27 -134 -69 -330 -166 -116 -58 -484
-248 -535 -277 -34 -20 -99 -53 -440 -229 -91 -47 -189 -99 -218 -114 -45 -25
-54 -27 -62 -14 -15 24 -13 802 3 822 6 9 129 76 272 148 143 73 265 136 270
141 22 16 128 69 140 69 7 0 39 14 71 31 132 70 287 150 424 219 80 41 158 83
174 94 16 11 124 68 240 126 116 59 249 127 296 152 47 25 204 106 350 181
146 74 312 160 370 191 l105 55 3 428 c1 235 0 434 -3 441 -3 9 -46 -9 -142
-59 -76 -40 -237 -123 -358 -185 -346 -177 -467 -239 -663 -343 -101 -53 -232
-121 -290 -151 -59 -31 -195 -101 -302 -157 -107 -55 -213 -110 -235 -121
-215 -106 -515 -259 -649 -331 -33 -18 -65 -30 -73 -27 -19 8 -19 794 0 818 6
9 125 73 262 143 138 70 256 132 262 137 7 6 63 36 125 67 62 32 160 82 218
113 58 31 278 143 490 251 485 245 681 346 700 362 8 7 104 58 213 114 297
151 431 223 439 235 10 14 10 858 0 873 -8 12 -92 57 -437 233 -115 59 -241
125 -280 145 -38 21 -194 100 -345 177 -151 77 -282 146 -290 153 -8 7 -46 28
-85 47 -66 33 -346 177 -520 267 l-80 42 -190 -97 c-230 -117 -375 -193 -435
-226 -103 -57 -676 -351 -1180 -604 -271 -136 -282 -145 -217 -175 17 -9 149
-76 292 -149 143 -73 282 -144 308 -157 l49 -24 76 39 c359 184 578 295 687
349 44 22 141 72 215 110 267 139 377 193 392 193 14 0 154 -69 526 -261 67
-34 121 -68 119 -73 -2 -6 -28 -24 -58 -39 -30 -16 -97 -51 -149 -79 -100 -54
-433 -222 -491 -249 -50 -23 -449 -228 -484 -249 -43 -26 -347 -183 -587 -305
-113 -57 -209 -109 -213 -115 -14 -23 -18 -22 -440 195 -196 100 -274 143
-295 159 -8 7 -94 52 -190 101 -96 48 -179 91 -185 95 -5 4 -71 37 -145 74
-229 114 -248 123 -490 248 -289 149 -293 152 -297 163 -1 6 102 63 230 128
127 66 248 128 267 138 32 18 119 65 385 204 55 29 201 105 325 167 124 63
268 137 320 165 52 28 180 94 285 148 104 53 195 101 201 106 6 5 76 42 155
83 403 205 529 272 526 281 -2 5 -48 32 -103 60 -54 28 -162 84 -239 125 -77
40 -176 92 -220 114 -44 23 -81 44 -83 49 -10 21 -81 -3 -217 -75z m-2315
-3052 c118 -60 310 -157 425 -216 116 -58 397 -201 625 -317 380 -193 461
-235 678 -347 l72 -38 0 -414 c0 -376 -2 -414 -16 -414 -9 0 -76 31 -148 69
-72 38 -220 114 -328 169 -109 55 -210 109 -225 120 -16 10 -73 41 -128 69
-55 27 -192 96 -305 153 -113 57 -250 126 -305 153 -55 27 -111 57 -125 66
-14 9 -59 32 -100 51 -41 19 -82 40 -90 46 -8 7 -70 39 -136 72 -67 34 -124
68 -128 77 -8 21 -8 763 0 793 4 13 9 22 13 20 3 -2 103 -52 221 -112z m-15
-1712 c110 -56 241 -123 290 -149 50 -27 106 -55 125 -64 91 -42 723 -366 768
-395 23 -15 86 -49 140 -75 53 -27 151 -77 217 -111 66 -34 147 -76 180 -92
104 -52 95 -6 95 -465 0 -353 -2 -403 -15 -403 -8 0 -95 41 -193 92 -97 50
-240 123 -317 161 -77 38 -158 78 -180 89 -74 37 -565 291 -685 355 -41 22
-199 104 -350 183 -151 79 -281 150 -287 159 -10 11 -13 106 -13 395 0 357 4
431 19 424 3 -2 96 -49 206 -104z"/>
<path d="M8105 6050 c-3 -5 -21 -10 -40 -10 -19 0 -37 -4 -40 -10 -3 -5 -14
-10 -24 -10 -23 0 -75 -26 -91 -45 -7 -8 -18 -15 -24 -15 -14 0 -83 -71 -112
-114 -46 -70 -53 -82 -53 -103 -1 -12 -5 -25 -11 -28 -5 -3 -10 -17 -10 -30 0
-13 -4 -27 -10 -30 -5 -3 -10 -30 -10 -60 0 -30 -4 -57 -10 -60 -5 -3 -10 -33
-10 -65 0 -32 5 -62 10 -65 6 -3 10 -30 10 -60 0 -30 5 -57 10 -60 6 -3 10
-15 10 -26 0 -10 4 -27 9 -37 5 -9 17 -36 27 -60 9 -23 24 -48 32 -54 8 -7 25
-30 38 -50 14 -21 30 -38 37 -38 8 0 24 -11 37 -25 26 -28 115 -75 141 -75 10
0 21 -4 24 -10 3 -5 30 -10 60 -10 30 0 57 -4 60 -10 3 -5 24 -10 45 -10 21 0
42 5 45 10 3 6 30 10 60 10 30 0 57 5 60 10 3 6 14 10 24 10 23 0 75 26 91 45
7 8 18 15 24 15 15 0 86 72 86 87 0 6 7 16 15 23 22 18 65 111 65 140 0 14 5
31 10 36 7 7 10 57 8 130 l-3 119 -235 0 -235 0 0 -95 0 -95 113 -2 c63 0 116
-3 118 -6 3 -2 -1 -17 -7 -33 -42 -103 -43 -103 -116 -141 -95 -47 -241 -26
-319 48 -31 29 -70 111 -79 164 -13 81 -17 197 -6 208 6 6 11 23 11 37 0 36
41 115 82 157 40 41 81 63 119 63 15 0 31 5 34 10 3 6 19 10 35 10 16 0 32 -4
35 -10 3 -5 21 -10 39 -10 20 0 40 -8 51 -20 10 -11 23 -20 29 -20 14 -1 51
-59 60 -94 l7 -27 122 3 122 3 3 36 c2 26 -7 55 -33 105 -37 69 -109 154 -131
154 -6 0 -17 7 -24 15 -16 19 -68 45 -91 45 -10 0 -21 5 -24 10 -3 6 -21 10
-40 10 -19 0 -37 5 -40 10 -3 6 -46 10 -95 10 -49 0 -92 -4 -95 -10z"/>
<path d="M9025 6028 c-3 -7 -4 -263 -3 -568 l3 -555 115 0 115 0 3 198 2 197
88 0 87 -1 40 -81 c22 -45 49 -96 60 -113 11 -16 36 -61 55 -100 54 -110 44
-105 191 -105 133 0 154 7 125 39 -9 10 -39 63 -67 117 -28 55 -57 106 -63
114 -7 8 -25 41 -40 72 -15 32 -31 60 -37 63 -17 11 -9 45 14 54 53 22 123
121 156 222 33 106 -11 268 -97 352 -41 40 -123 87 -153 87 -10 0 -21 5 -24
10 -10 16 -564 13 -570 -2z m440 -198 c3 -5 21 -10 39 -10 54 0 116 -80 116
-150 0 -45 -12 -70 -54 -117 -25 -27 -37 -33 -72 -33 -24 0 -46 -4 -49 -10 -3
-5 -46 -10 -96 -10 l-89 0 0 170 0 170 99 0 c56 0 103 -4 106 -10z"/>
<path d="M10507 6034 c-4 -4 -7 -18 -7 -30 0 -13 -4 -26 -10 -29 -5 -3 -10
-17 -10 -30 0 -13 -4 -27 -10 -30 -5 -3 -10 -14 -10 -24 0 -9 -9 -36 -20 -59
-11 -22 -20 -48 -20 -56 0 -8 -4 -18 -10 -21 -5 -3 -10 -17 -10 -30 0 -13 -4
-27 -10 -30 -5 -3 -10 -17 -10 -30 0 -13 -4 -27 -10 -30 -5 -3 -10 -17 -10
-30 0 -13 -4 -27 -10 -30 -5 -3 -10 -17 -10 -30 0 -13 -4 -27 -10 -30 -5 -3
-10 -17 -10 -30 0 -13 -4 -27 -10 -30 -5 -3 -10 -17 -10 -30 0 -13 -4 -27 -10
-30 -5 -3 -10 -17 -10 -30 0 -13 -4 -27 -10 -30 -5 -3 -10 -14 -10 -24 0 -9
-9 -36 -20 -59 -11 -22 -20 -48 -20 -56 0 -8 -4 -18 -10 -21 -5 -3 -10 -17
-10 -30 0 -13 -4 -27 -10 -30 -5 -3 -10 -17 -10 -30 0 -13 -4 -27 -10 -30 -5
-3 -10 -17 -10 -30 0 -13 -4 -27 -10 -30 -5 -3 -10 -16 -10 -29 0 -12 -5 -27
-12 -34 -25 -25 8 -33 138 -30 l129 3 3 25 c2 14 8 29 13 35 5 5 9 19 9 31 0
13 5 26 10 29 6 3 10 17 10 30 0 13 5 27 10 30 6 3 10 16 10 29 0 43 14 46
211 46 138 0 189 -3 196 -12 5 -7 15 -33 22 -58 7 -25 17 -53 22 -62 5 -10 9
-26 9 -36 0 -10 4 -22 9 -27 5 -6 11 -21 13 -35 l3 -25 129 -3 c130 -3 163 5
138 30 -7 7 -12 20 -12 30 0 10 -4 26 -10 36 -5 9 -33 87 -61 172 -28 85 -55
159 -60 165 -5 5 -9 19 -9 31 0 13 -4 26 -10 29 -5 3 -10 17 -10 30 0 13 -4
27 -10 30 -5 3 -10 17 -10 30 0 13 -4 27 -10 30 -5 3 -10 15 -10 26 0 10 -4
27 -10 37 -5 9 -33 87 -61 172 -28 85 -55 159 -60 165 -5 5 -9 18 -9 30 0 12
-4 25 -9 31 -5 5 -11 20 -13 34 l-3 25 -161 3 c-88 1 -163 -1 -167 -4z m179
-295 c1 -24 15 -73 25 -91 5 -10 9 -27 9 -37 0 -11 5 -23 10 -26 6 -3 10 -17
10 -30 0 -13 5 -27 10 -30 6 -3 10 -17 10 -30 0 -13 4 -26 9 -29 5 -3 11 -20
14 -38 3 -18 7 -40 9 -48 4 -20 5 -20 -132 -20 -112 0 -120 1 -120 19 0 11 5
23 10 26 6 3 10 17 10 30 0 13 5 27 10 30 6 3 10 17 10 30 0 13 5 27 10 30 6
3 10 17 10 30 0 13 5 27 10 30 6 3 10 15 10 26 0 10 4 27 9 37 6 9 13 31 17
47 7 28 8 36 12 58 3 14 27 2 28 -14z"/>
<path d="M11505 6028 c-3 -7 -4 -263 -3 -568 l3 -555 115 0 115 0 2 345 c1
340 6 390 33 328 6 -13 18 -35 28 -49 83 -126 112 -167 126 -178 9 -7 16 -18
16 -24 0 -6 7 -19 17 -29 9 -10 21 -27 27 -37 28 -48 106 -158 120 -170 9 -7
16 -18 16 -24 0 -6 7 -19 17 -29 9 -10 21 -26 27 -37 6 -10 24 -37 39 -60 l28
-42 102 3 102 3 0 565 0 565 -115 0 -115 0 -2 -334 c-1 -183 -4 -336 -7 -339
-7 -7 -56 38 -56 51 0 6 -7 19 -17 29 -9 10 -21 27 -27 37 -29 50 -146 219
-160 230 -9 8 -16 19 -16 26 0 6 -9 20 -20 30 -11 10 -20 23 -20 28 0 6 -7 19
-17 29 -9 10 -21 27 -27 37 -22 38 -90 137 -109 159 -19 20 -29 22 -119 22
-70 0 -100 -4 -103 -12z"/>
<path d="M12785 6028 c-3 -7 -4 -263 -3 -568 l3 -555 125 0 125 0 0 565 0 565
-123 3 c-92 2 -124 -1 -127 -10z"/>
<path d="M13324 6027 c-3 -8 -4 -52 -2 -98 l3 -84 168 -3 167 -2 0 -458 c0
-251 4 -463 8 -470 7 -9 39 -12 128 -10 l119 3 3 467 2 468 168 2 167 3 0 95
0 95 -463 3 c-380 2 -463 0 -468 -11z"/>
<path d="M14565 6028 c-3 -7 -4 -263 -3 -568 l3 -555 375 0 375 0 0 105 0 105
-257 3 -258 2 0 120 0 120 238 2 237 3 0 105 0 105 -237 3 -238 2 0 130 0 130
258 2 257 3 0 95 0 95 -373 3 c-293 2 -374 0 -377 -10z"/>
<path d="M7685 4488 c-3 -7 -4 -263 -3 -568 l3 -555 299 -3 c193 -1 303 1 310
8 5 5 20 10 32 10 13 0 26 5 29 10 3 6 16 10 29 10 13 0 31 9 41 20 10 11 24
20 31 20 12 0 29 21 86 109 9 14 17 44 17 66 1 23 6 46 13 53 9 9 9 15 0 24
-7 7 -12 26 -12 44 0 17 -6 47 -14 65 -18 42 -89 110 -138 133 -43 19 -48 33
-15 45 24 10 94 82 115 118 14 27 17 189 2 198 -5 3 -10 15 -10 26 0 50 -145
159 -211 159 -15 0 -31 5 -34 10 -10 16 -564 13 -570 -2z m460 -198 c3 -5 14
-10 24 -10 29 0 70 -24 81 -48 5 -13 10 -46 10 -74 0 -45 -4 -57 -32 -85 l-32
-33 -128 0 -128 0 0 130 0 130 99 0 c56 0 103 -4 106 -10z m20 -440 c3 -5 20
-10 38 -10 21 0 41 -10 64 -32 31 -30 33 -37 33 -97 0 -60 -3 -68 -32 -98
l-32 -33 -148 0 -148 0 0 140 0 140 109 0 c63 0 112 -4 116 -10z"/>
<path d="M8867 4494 c-12 -13 -8 -794 4 -833 23 -72 55 -127 103 -178 47 -51
132 -103 167 -103 10 0 21 -4 24 -10 3 -5 21 -10 40 -10 19 0 37 -4 40 -10 3
-5 42 -10 85 -10 43 0 82 5 85 10 3 6 26 10 50 10 24 0 47 5 50 10 3 6 14 10
24 10 26 0 74 26 101 55 13 14 29 25 36 25 16 0 65 69 99 138 l25 53 -2 422
-3 422 -115 0 -115 0 -3 -375 c-1 -229 -6 -378 -12 -384 -6 -6 -10 -18 -10
-27 0 -32 -45 -85 -90 -107 -35 -17 -64 -22 -123 -22 -80 0 -102 7 -150 50
-56 50 -57 52 -59 475 l-3 390 -121 3 c-66 1 -123 -1 -127 -4z"/>
<path d="M10145 4488 c-3 -7 -4 -263 -3 -568 l3 -555 259 -3 c166 -1 263 1
270 8 5 5 25 10 42 10 18 0 36 5 39 10 3 6 14 10 24 10 23 0 75 26 91 45 7 8
18 15 24 15 30 0 164 171 165 213 1 9 5 25 10 35 32 63 45 313 20 391 -23 70
-48 128 -83 190 -19 33 -98 111 -112 111 -6 0 -17 7 -24 15 -16 19 -68 45 -91
45 -10 0 -21 5 -24 10 -3 6 -21 10 -40 10 -19 0 -37 5 -40 10 -10 16 -524 13
-530 -2z m500 -218 c3 -5 15 -10 26 -10 40 0 113 -57 133 -105 32 -73 36 -88
36 -125 0 -21 5 -42 10 -45 6 -3 10 -28 10 -55 0 -27 -4 -52 -10 -55 -5 -3
-10 -24 -10 -45 0 -36 -5 -55 -33 -120 -14 -33 -47 -70 -62 -70 -7 0 -20 -9
-30 -20 -11 -12 -31 -20 -51 -20 -18 0 -36 -4 -39 -10 -4 -6 -53 -10 -116 -10
l-109 0 0 350 0 350 119 0 c69 0 122 -4 126 -10z"/>
<path d="M7685 2948 c-3 -7 -4 -263 -3 -568 l3 -555 385 0 385 0 3 94 c2 60
-1 98 -9 107 -9 11 -59 14 -260 14 l-249 0 0 120 0 120 238 2 237 3 0 105 0
105 -237 3 -238 2 0 120 0 120 258 2 257 3 0 105 0 105 -383 3 c-301 2 -384 0
-387 -10z"/>
<path d="M8745 2949 c-4 -6 2 -21 14 -33 12 -12 21 -26 21 -30 0 -5 14 -28 30
-53 17 -24 30 -46 30 -49 0 -3 21 -37 47 -77 26 -40 56 -88 66 -107 11 -19 25
-42 33 -51 8 -8 14 -19 14 -22 0 -4 12 -26 27 -50 60 -93 63 -105 33 -132 -11
-10 -20 -24 -20 -30 0 -7 -7 -18 -15 -25 -9 -7 -25 -32 -35 -55 -10 -23 -26
-48 -35 -55 -8 -7 -15 -18 -15 -25 0 -6 -9 -20 -20 -30 -11 -10 -20 -22 -20
-26 0 -4 -13 -28 -30 -52 -16 -25 -30 -49 -30 -54 0 -6 -9 -18 -20 -28 -11
-10 -20 -22 -20 -26 0 -4 -14 -28 -31 -53 -17 -25 -27 -50 -24 -56 4 -6 59
-10 134 -10 126 0 127 0 153 28 13 15 32 44 42 64 9 20 21 40 26 43 6 3 19 26
30 50 11 24 24 47 30 50 6 3 19 25 31 48 38 77 50 97 59 97 5 0 18 -19 29 -42
11 -24 26 -52 33 -63 7 -11 25 -39 41 -63 15 -24 27 -45 27 -49 0 -3 12 -24
28 -47 15 -22 36 -58 47 -78 l20 -38 137 0 c87 0 139 4 143 11 4 6 -2 21 -14
33 -12 12 -21 26 -21 30 0 4 -21 39 -47 79 -26 40 -56 87 -66 105 -10 18 -33
55 -52 82 -19 28 -35 53 -35 56 0 3 -13 26 -30 51 -16 24 -30 48 -30 52 0 4
-9 16 -20 26 -11 10 -20 24 -20 32 0 16 49 111 61 119 5 3 18 25 29 49 11 24
24 47 30 50 6 3 19 25 30 49 10 23 26 49 35 56 8 7 15 16 15 21 0 4 14 28 30
52 17 25 30 49 30 55 0 5 7 15 15 22 14 12 55 90 55 104 0 4 -63 6 -140 6
l-139 0 -18 -37 c-9 -21 -28 -54 -41 -73 -13 -19 -32 -54 -43 -77 -10 -23 -23
-45 -29 -48 -6 -3 -19 -25 -30 -49 -10 -23 -26 -49 -35 -56 -8 -7 -15 -19 -15
-27 0 -30 -26 -5 -58 58 -19 35 -40 71 -48 80 -8 8 -14 19 -14 22 0 4 -12 26
-27 50 -15 23 -36 58 -46 77 -43 78 -46 80 -188 80 -80 0 -130 -4 -134 -11z"/>
<path d="M10045 2948 c-3 -7 -4 -263 -3 -568 l3 -555 125 0 125 0 3 178 2 177
145 0 c85 0 146 4 150 10 3 6 19 10 34 10 39 0 121 44 164 88 21 22 54 70 73
107 32 65 34 74 34 173 0 95 -2 109 -32 170 -31 66 -92 142 -113 142 -7 0 -20
9 -30 20 -10 11 -28 20 -41 20 -13 0 -26 5 -29 10 -3 6 -17 10 -30 10 -13 0
-27 5 -30 10 -10 16 -544 13 -550 -2z m508 -220 c64 -37 87 -78 87 -160 0 -63
-9 -85 -54 -135 -22 -24 -38 -33 -62 -33 -18 0 -36 -4 -39 -10 -3 -5 -46 -10
-96 -10 l-89 0 0 180 0 180 115 0 c74 0 123 -5 138 -12z"/>
<path d="M11205 2948 c-3 -7 -4 -263 -3 -568 l3 -555 379 -3 c297 -2 381 1
388 10 4 7 8 49 8 94 0 120 14 114 -278 114 l-242 0 0 120 0 120 234 0 c204 0
235 2 240 16 3 9 6 51 6 94 0 43 -3 85 -6 94 -5 14 -36 16 -240 16 l-234 0 0
120 0 120 254 0 c222 0 255 2 260 16 3 9 6 51 6 94 0 43 -3 85 -6 94 -5 14
-49 16 -385 16 -295 0 -381 -3 -384 -12z"/>
<path d="M12305 2948 c-3 -7 -4 -263 -3 -568 l3 -555 119 -3 c89 -2 121 1 128
10 4 7 8 97 8 201 l0 187 78 0 77 -1 32 -67 c18 -37 52 -102 75 -145 24 -43
52 -96 64 -117 38 -72 34 -70 175 -70 71 0 129 4 129 8 0 11 -99 203 -114 222
-7 8 -23 38 -36 65 -14 28 -35 67 -48 89 l-24 39 74 76 c73 75 84 92 107 162
14 46 14 152 0 198 -30 92 -102 201 -134 201 -6 0 -20 9 -30 20 -10 11 -28 20
-41 20 -13 0 -26 5 -29 10 -3 6 -21 10 -40 10 -19 0 -37 5 -40 10 -10 16 -524
13 -530 -2z m512 -223 c39 -19 54 -38 70 -84 33 -96 -14 -198 -94 -200 -12 -1
-25 -5 -28 -11 -3 -6 -50 -10 -106 -10 l-99 0 0 160 0 160 113 0 c82 0 123 -4
144 -15z"/>
<path d="M13424 2947 c-2 -7 -3 -56 -2 -108 l3 -94 167 -3 168 -2 2 -458 3
-457 125 0 125 0 3 457 2 458 168 2 167 3 0 105 0 105 -463 3 c-378 2 -463 0
-468 -11z"/>
</g>
</svg>
