<?xml version="1.0" standalone="no"?>
<!DOCTYPE svg PUBLIC "-//W3C//DTD SVG 20010904//EN"
 "http://www.w3.org/TR/2001/REC-SVG-20010904/DTD/svg10.dtd">
<svg version="1.0" xmlns="http://www.w3.org/2000/svg"
 width="256.000000pt" height="367.000000pt" viewBox="0 0 256.000000 367.000000"
 preserveAspectRatio="xMidYMid meet">

<g transform="translate(0.000000,367.000000) scale(0.100000,-0.100000)"
fill="#fff" stroke="none">
<path d="M1153 3660 c-433 -48 -804 -300 -1002 -680 -97 -186 -141 -368 -141
-584 0 -239 51 -434 167 -636 124 -217 426 -706 691 -1123 364 -571 407 -637
412 -637 9 0 556 860 820 1290 346 562 397 665 435 884 31 182 15 418 -41 604
-31 104 -118 275 -186 367 -147 199 -369 364 -606 449 -155 55 -391 84 -549
66z m270 -725 c97 -25 176 -72 252 -149 123 -124 171 -248 162 -421 -10 -210
-121 -381 -309 -476 -368 -186 -808 88 -808 504 0 244 153 453 389 534 80 27
226 31 314 8z"/>
</g>
</svg>
