<?xml version="1.0" standalone="no"?>
<!DOCTYPE svg PUBLIC "-//W3C//DTD SVG 20010904//EN"
 "http://www.w3.org/TR/2001/REC-SVG-20010904/DTD/svg10.dtd">
<svg version="1.0" xmlns="http://www.w3.org/2000/svg"
 width="512.000000pt" height="512.000000pt" viewBox="0 0 512.000000 512.000000"
 preserveAspectRatio="xMidYMid meet">

<g transform="translate(0.000000,512.000000) scale(0.100000,-0.100000)"
fill="#fff" stroke="none">
<path d="M223 4199 c-35 -4 -67 -11 -73 -14 -34 -21 21 -83 216 -242 55 -45
155 -127 224 -184 245 -201 446 -366 506 -415 33 -27 134 -110 224 -184 90
-74 188 -155 219 -180 31 -26 137 -113 236 -194 99 -81 263 -216 365 -299 102
-83 202 -166 223 -184 20 -18 41 -33 46 -33 9 0 152 102 726 515 121 87 281
202 355 255 74 53 203 145 285 205 83 59 195 140 250 180 55 40 183 132 285
205 102 73 208 149 235 169 28 20 104 74 169 121 151 107 272 220 263 243 -16
43 47 42 -2377 43 -1273 1 -2343 -2 -2377 -7z"/>
<path d="M5070 3728 c-23 -19 -108 -80 -445 -323 -125 -90 -219 -158 -610
-440 -66 -48 -235 -170 -375 -271 -140 -102 -309 -224 -375 -271 -232 -167
-362 -261 -597 -431 -130 -95 -242 -174 -250 -177 -7 -3 -45 21 -84 53 -128
103 -783 635 -1070 869 -154 125 -433 352 -620 503 -186 152 -401 326 -476
388 -76 62 -143 112 -148 112 -7 0 -9 -420 -8 -1292 l3 -1293 27 -57 c30 -66
95 -135 153 -163 40 -20 68 -20 2365 -20 l2325 0 54 30 c61 34 110 89 143 161
l23 49 3 1289 c1 709 -1 1293 -5 1297 -5 4 -19 -2 -33 -13z"/>
</g>
</svg>
