<?xml version="1.0" standalone="no"?>
<!DOCTYPE svg PUBLIC "-//W3C//DTD SVG 20010904//EN"
 "http://www.w3.org/TR/2001/REC-SVG-20010904/DTD/svg10.dtd">
<svg version="1.0" xmlns="http://www.w3.org/2000/svg"
 width="336.000000pt" height="332.000000pt" viewBox="0 0 336.000000 332.000000"
 preserveAspectRatio="xMidYMid meet">

<g transform="translate(0.000000,332.000000) scale(0.100000,-0.100000)"
fill="#fff" stroke="none">
<path d="M550 3310 c0 -5 -5 -10 -10 -10 -14 0 -297 -283 -335 -335 -17 -22
-32 -42 -36 -45 -3 -3 -16 -25 -30 -50 -13 -25 -27 -46 -31 -48 -5 -2 -8 -10
-8 -18 0 -7 -9 -29 -20 -49 -11 -20 -20 -44 -20 -55 0 -10 -4 -21 -9 -24 -14
-9 -42 -196 -42 -276 1 -84 13 -195 22 -205 5 -5 9 -26 9 -46 0 -21 5 -41 10
-44 6 -3 10 -19 10 -35 0 -16 5 -32 10 -35 6 -3 10 -17 10 -31 0 -13 5 -24 10
-24 6 0 10 -11 10 -24 0 -14 5 -28 10 -31 6 -3 10 -15 10 -26 0 -10 5 -19 10
-19 6 0 10 -7 10 -15 0 -15 60 -140 100 -210 13 -22 32 -57 43 -78 12 -20 24
-37 29 -37 4 0 8 -5 8 -11 0 -12 60 -103 72 -107 4 -2 8 -9 8 -15 0 -7 14 -26
30 -44 17 -18 30 -36 30 -40 0 -4 12 -21 26 -38 14 -16 38 -46 53 -65 14 -19
37 -46 51 -60 14 -14 41 -45 60 -70 39 -51 141 -159 243 -258 38 -37 104 -101
146 -143 43 -41 95 -89 117 -105 21 -16 50 -40 64 -54 14 -14 41 -37 60 -50
19 -13 49 -37 65 -52 17 -15 34 -28 39 -28 5 0 16 -8 25 -18 9 -9 28 -23 44
-31 15 -8 27 -18 27 -23 0 -4 5 -8 11 -8 5 0 37 -18 69 -40 32 -22 64 -40 69
-40 6 0 11 -4 11 -10 0 -5 9 -10 20 -10 11 0 20 -4 20 -10 0 -5 9 -10 20 -10
11 0 20 -4 20 -10 0 -5 9 -10 20 -10 11 0 20 -3 20 -8 0 -6 19 -16 85 -42 38
-14 80 -32 97 -41 10 -5 25 -9 33 -9 8 0 23 -4 33 -9 31 -15 88 -31 115 -31
14 0 29 -4 32 -10 3 -5 28 -10 56 -10 27 0 49 -4 49 -9 0 -13 367 -14 375 -1
3 5 21 10 40 10 19 0 37 5 40 10 3 6 14 10 24 10 20 0 202 90 221 110 3 3 23
18 45 35 67 49 335 323 335 343 0 10 5 23 11 29 8 8 8 13 0 17 -6 4 -11 15
-11 24 0 23 -461 482 -483 482 -9 0 -17 3 -17 8 0 12 -52 32 -82 32 -15 0 -39
5 -53 12 -19 9 -28 9 -37 0 -7 -7 -25 -12 -40 -12 -16 0 -36 -4 -46 -9 -9 -5
-30 -15 -47 -22 -31 -14 -119 -92 -188 -166 -22 -24 -46 -43 -54 -43 -7 0 -13
-3 -13 -8 0 -33 -204 -50 -267 -22 -18 8 -33 18 -33 22 0 5 -6 8 -13 8 -7 0
-23 9 -35 20 -12 11 -25 20 -29 20 -4 0 -21 11 -37 25 -16 14 -32 25 -36 25
-4 0 -25 16 -46 35 -22 19 -45 35 -51 35 -7 0 -13 3 -13 8 0 4 -18 18 -40 32
-22 14 -40 27 -40 31 0 3 -28 28 -62 55 -71 55 -334 316 -375 372 -15 20 -35
44 -43 52 -9 8 -27 31 -40 50 -13 19 -32 42 -42 51 -10 9 -18 20 -18 25 0 5
-12 23 -26 39 -14 17 -33 42 -42 58 -9 15 -19 27 -23 27 -4 0 -12 14 -19 30
-7 17 -16 30 -21 30 -5 0 -9 7 -9 15 0 8 -5 24 -10 35 -6 11 -15 29 -20 40
-22 44 -4 250 22 250 5 0 8 5 8 11 0 18 44 76 117 152 65 69 79 89 112 170 14
34 15 154 1 162 -5 3 -10 14 -10 25 0 44 -57 112 -274 329 -229 228 -233 231
-274 231 -23 0 -42 -4 -42 -10z"/>
</g>
</svg>
